<svg width="200" height="200" viewBox="0 0 200 200" fill="none" xmlns="http://www.w3.org/2000/svg">
  <rect width="200" height="200" fill="#EFF6FF"/>
  
  <!-- Business suit -->
  <path d="M60 110V190H140V110" fill="#1E3A8A"/>
  
  <!-- Head -->
  <circle cx="100" cy="70" r="35" fill="#FFEFD5"/>
  
  <!-- Suit collar and shirt -->
  <path d="M70 110V150C70 165.333 83.667 180 100 180C116.333 180 130 165.333 130 150V110" fill="#1E40AF"/>
  <path d="M85 110V140H115V110" fill="#FFFFFF"/>
  
  <!-- Red tie - Ackman is known for his red ties -->
  <path d="M100 110V160" stroke="#EF4444" stroke-width="8"/>
  <path d="M100 125L90 110H110L100 125" fill="#EF4444"/>
  
  <!-- Dark full hair, slightly receding -->
  <path d="M70 50C70 50 80 30 100 30C120 30 130 50 130 50V65H70V50Z" fill="#1E293B"/>
  <path d="M70 50C70 50 80 30 100 30C120 30 130 50 130 50" stroke="#1E293B" stroke-width="1"/>
  
  <!-- Slight receding hairline -->
  <path d="M85 40L95 35" stroke="#EFF6FF" stroke-width="1"/>
  <path d="M115 40L105 35" stroke="#EFF6FF" stroke-width="1"/>
  
  <!-- Modern rectangular glasses -->
  <rect x="78" y="62" width="18" height="16" rx="2" stroke="#000000" stroke-width="1.5" fill="none"/>
  <rect x="104" y="62" width="18" height="16" rx="2" stroke="#000000" stroke-width="1.5" fill="none"/>
  <path d="M96 70H104" stroke="#000000" stroke-width="1.5"/>
  
  <!-- Eyes behind glasses -->
  <circle cx="87" cy="70" r="3" fill="#1E40AF"/>
  <circle cx="113" cy="70" r="3" fill="#1E40AF"/>
  
  <!-- Eyebrows - sharp, decisive -->
  <path d="M78 58C83 56 88 56 93 58" stroke="#1E293B" stroke-width="2" stroke-linecap="round"/>
  <path d="M107 58C112 56 117 56 122 58" stroke="#1E293B" stroke-width="2" stroke-linecap="round"/>
  
  <!-- Mouth - confident smile -->
  <path d="M90 85C95 88 105 88 110 85" stroke="#1E40AF" stroke-width="1.5" stroke-linecap="round"/>
  
  <!-- Chin dimple -->
  <path d="M100 95L100 98" stroke="#94A3B8" stroke-width="1" stroke-linecap="round"/>
  
  <!-- Wall Street confidence vibe -->
  <path d="M75 110L80 105H120L125 110" stroke="#1E40AF" stroke-width="2"/>
  
  <!-- Pocket square - hedge fund flair -->
  <path d="M120 115L125 112L120 109L115 112L120 115Z" fill="#FFFFFF"/>
</svg>