<svg width="200" height="200" viewBox="0 0 200 200" fill="none" xmlns="http://www.w3.org/2000/svg">
  <rect width="200" height="200" fill="#DBEAFE"/>
  
  <!-- Business suit -->
  <path d="M65 105V190H135V105" fill="#1E40AF"/>
  
  <!-- Shirt -->
  <path d="M80 105V130H120V105" fill="#FFFFFF"/>
  <path d="M95 130V160" stroke="#FFFFFF" stroke-width="2"/>
  <path d="M105 130V160" stroke="#FFFFFF" stroke-width="2"/>
  
  <!-- Tie -->
  <path d="M100 105V160" stroke="#3B82F6" stroke-width="12"/>
  <path d="M100 125L90 105H110L100 125" fill="#3B82F6"/>
  
  <!-- Head -->
  <circle cx="100" cy="65" r="35" fill="#FFEFD5"/>
  
  <!-- Hair - modern professional cut -->
  <path d="M70 50C70 50 80 25 100 25C120 25 130 50 130 50V65" fill="#0F172A"/>
  <path d="M70 50C70 50 80 25 100 25C120 25 130 50 130 50" stroke="#0F172A" stroke-width="1"/>
  
  <!-- Eyes -->
  <ellipse cx="85" cy="65" rx="4" ry="3" fill="#1E3A8A"/>
  <ellipse cx="115" cy="65" rx="4" ry="3" fill="#1E3A8A"/>
  
  <!-- Eyebrows -->
  <path d="M80 57C83 55 87 55 90 57" stroke="#0F172A" stroke-width="1.5" stroke-linecap="round"/>
  <path d="M110 57C113 55 117 55 120 57" stroke="#0F172A" stroke-width="1.5" stroke-linecap="round"/>
  
  <!-- Nose -->
  <path d="M100 65V75" stroke="#0F172A" stroke-width="1" stroke-linecap="round"/>
  
  <!-- Mouth - professional smile -->
  <path d="M90 85C93 88 107 88 110 85" stroke="#0F172A" stroke-width="1.5" stroke-linecap="round"/>
  
  <!-- Neck -->
  <path d="M90 100V105" stroke="#FFEFD5" stroke-width="10" stroke-linecap="round"/>
  <path d="M110 100V105" stroke="#FFEFD5" stroke-width="10" stroke-linecap="round"/>
</svg>